<?xml version="1.0" encoding="UTF-8"?>
<svg version="1.1" xmlns="http://www.w3.org/2000/svg" width="500" height="500">
<path d="M0 0 C2.9555276 1.31194212 5.08984813 2.95366533 7.5546875 5.05078125 C8.51632812 5.86675781 9.47796875 6.68273437 10.46875 7.5234375 C11.90347656 8.77447266 11.90347656 8.77447266 13.3671875 10.05078125 C14.64722656 11.16259766 14.64722656 11.16259766 15.953125 12.296875 C33.70953477 28.00877702 33.70953477 28.00877702 34.3671875 33.05078125 C38.31825531 32.38421969 41.42222435 30.38735168 44.8046875 28.36328125 C79.76587101 8.12021256 125.99618225 2.88966092 165.3671875 12.05078125 C168.2817186 23.70890565 168.533131 35.32833255 168.49755859 47.28613281 C168.49221183 49.41608858 168.49753209 51.54583193 168.50390625 53.67578125 C168.51142002 65.63010698 168.2788046 77.58506401 165.6796875 89.30078125 C165.50598633 90.09524658 165.33228516 90.88971191 165.15332031 91.70825195 C161.3037543 108.5926353 155.24817905 124.73432238 145.3671875 139.05078125 C146.80938185 142.31585069 148.61812925 144.58125361 151.0546875 147.17578125 C154.01941853 150.46087699 156.80681748 153.79765273 159.4296875 157.36328125 C160.31333984 158.56404297 160.31333984 158.56404297 161.21484375 159.7890625 C162.3671875 162.05078125 162.3671875 162.05078125 162.2890625 164.00390625 C161.03688365 166.78416777 159.37986141 169.04681485 157.5546875 171.48828125 C156.86761719 172.41511719 156.18054688 173.34195313 155.47265625 174.296875 C154.77785156 175.20566406 154.08304687 176.11445313 153.3671875 177.05078125 C152.66207031 177.99050781 151.95695312 178.93023437 151.23046875 179.8984375 C150.30814453 180.96384766 150.30814453 180.96384766 149.3671875 182.05078125 C148.7071875 182.05078125 148.0471875 182.05078125 147.3671875 182.05078125 C147.109375 182.6334375 146.8515625 183.21609375 146.5859375 183.81640625 C145.26884733 186.23107155 143.81630366 187.86818302 141.8671875 189.80078125 C141.25875 190.414375 140.6503125 191.02796875 140.0234375 191.66015625 C138.3671875 193.05078125 138.3671875 193.05078125 136.3671875 193.05078125 C136.0371875 194.04078125 135.7071875 195.03078125 135.3671875 196.05078125 C132.86328125 198.09375 132.86328125 198.09375 129.8046875 200.23828125 C128.28681641 201.31142578 128.28681641 201.31142578 126.73828125 202.40625 C125.95582031 202.94894531 125.17335938 203.49164063 124.3671875 204.05078125 C125.46413618 207.07765569 126.7761048 209.86371451 128.35546875 212.66015625 C143.39040372 239.30299302 146.54304995 270.1004314 143.4921875 300.23828125 C143.41379639 301.02807373 143.33540527 301.81786621 143.25463867 302.6315918 C142.76477525 307.00748586 141.94092987 310.9048297 140.3671875 315.05078125 C138.93151017 315.37155081 137.49346768 315.68172933 136.0546875 315.98828125 C135.25417969 316.16230469 134.45367187 316.33632813 133.62890625 316.515625 C116.16350272 319.38120618 97.78602846 319.000003 80.3671875 316.05078125 C79.11808594 315.84453125 77.86898437 315.63828125 76.58203125 315.42578125 C63.55886389 313.05548398 51.72167503 309.27199328 40.2890625 302.6418457 C36.92375905 300.71650382 35.36162298 300.05078125 31.3671875 300.05078125 C30.7071875 300.05078125 30.0471875 300.05078125 29.3671875 300.05078125 C29.13644531 300.60507812 28.90570313 301.159375 28.66796875 301.73046875 C22.81128241 312.17753086 10.15074741 320.52840798 0.3671875 327.05078125 C-11.12693063 326.04504591 -25.48893704 308.771719 -32.5234375 300.4140625 C-32.88953125 299.96417969 -33.255625 299.51429688 -33.6328125 299.05078125 C-37.140064 299.8035315 -39.85253605 301.24195927 -42.9597168 303.03466797 C-70.86625173 318.94897881 -110.38570643 323.26776165 -141.4765625 315.32421875 C-143.6328125 314.05078125 -143.6328125 314.05078125 -144.5234375 311.58203125 C-144.64203125 310.58171875 -144.760625 309.58140625 -144.8828125 308.55078125 C-145.08777344 306.91109375 -145.08777344 306.91109375 -145.296875 305.23828125 C-145.40773438 304.18640625 -145.51859375 303.13453125 -145.6328125 302.05078125 C-145.74367188 301.28765625 -145.85453125 300.52453125 -145.96875 299.73828125 C-149.79488535 270.78374343 -145.43373944 238.51394557 -130.88452148 213.08837891 C-130.46372314 212.35280762 -130.0429248 211.61723633 -129.609375 210.859375 C-129.22861816 210.21798584 -128.84786133 209.57659668 -128.45556641 208.91577148 C-127.36372886 206.7805666 -127.36372886 206.7805666 -127.6328125 203.05078125 C-130.03438101 200.90381081 -130.03438101 200.90381081 -133.0703125 198.98828125 C-138.531609 195.35439175 -138.531609 195.35439175 -139.6328125 192.05078125 C-140.95492115 191.36212246 -142.29063612 190.69946052 -143.6328125 190.05078125 C-149.83322987 184.8008735 -154.95326334 178.6434089 -159.8203125 172.17578125 C-160.314104 171.53358643 -160.80789551 170.8913916 -161.31665039 170.22973633 C-164.70981801 165.58950189 -164.70981801 165.58950189 -164.3371582 162.98242188 C-161.26373146 154.55366889 -153.64695142 147.46040776 -147.6328125 141.05078125 C-148.84559109 138.5289718 -150.16564284 136.11425868 -151.55078125 133.6796875 C-165.66413765 108.63683792 -170.82083014 81.94440325 -170.81811523 53.4921875 C-170.82029035 50.95164939 -170.83847423 48.41155485 -170.85742188 45.87109375 C-170.88615888 37.67458451 -170.65965163 29.58429156 -169.74609375 21.43359375 C-169.66836227 20.7162204 -169.5906308 19.99884705 -169.51054382 19.25973511 C-168.88524019 14.30320894 -168.88524019 14.30320894 -166.6328125 12.05078125 C-163.96379692 11.40950602 -161.37179778 10.88975799 -158.66796875 10.453125 C-157.86529068 10.32268295 -157.06261261 10.19224091 -156.23561096 10.05784607 C-147.51174151 8.7410486 -138.87802436 8.54340196 -130.0703125 8.61328125 C-129.24919983 8.61632263 -128.42808716 8.61936401 -127.58209229 8.62249756 C-95.81890198 8.79538669 -65.50967219 15.61714253 -38.6328125 33.05078125 C-37.7046875 31.81328125 -37.7046875 31.81328125 -36.7578125 30.55078125 C-36.0565625 29.72578125 -35.3553125 28.90078125 -34.6328125 28.05078125 C-33.9728125 28.05078125 -33.3128125 28.05078125 -32.6328125 28.05078125 C-32.4265625 27.5196875 -32.2203125 26.98859375 -32.0078125 26.44140625 C-30.05320058 23.04304689 -27.41157533 20.54022197 -24.6328125 17.80078125 C-23.81296875 16.96933594 -23.81296875 16.96933594 -22.9765625 16.12109375 C-18.8861992 12.05078125 -18.8861992 12.05078125 -16.6328125 12.05078125 C-16.6328125 11.39078125 -16.6328125 10.73078125 -16.6328125 10.05078125 C-14.44099674 8.21487603 -12.25980161 6.53036082 -9.9453125 4.86328125 C-9.31947266 4.38697266 -8.69363281 3.91066406 -8.04882812 3.41992188 C-3.41329572 0.06583508 -3.41329572 0.06583508 0 0 Z M-11.6328125 34.05078125 C-13.69224517 36.14104964 -15.70344415 38.27116348 -17.6953125 40.42578125 C-18.41050049 41.19293457 -18.41050049 41.19293457 -19.14013672 41.97558594 C-21.28646283 44.3353718 -22.61131183 45.98627925 -23.6328125 49.05078125 C-22.03464558 51.67178573 -22.03464558 51.67178573 -19.7578125 54.55078125 C-11.58337002 65.72084698 -5.85553018 78.9101563 -1.6328125 92.05078125 C-0.06598487 89.0300505 1.23029119 85.95993426 2.4921875 82.80078125 C7.55395088 70.6436428 13.13180646 59.38881276 21.3671875 49.05078125 C18.60086117 44.6972185 15.57236241 40.83151707 12.0546875 37.05078125 C11.57338379 36.52967773 11.09208008 36.00857422 10.59619141 35.47167969 C7.05917713 31.68734658 3.4440521 28.24137094 -0.6328125 25.05078125 C-4.228607 25.05078125 -9.04124091 31.53520633 -11.6328125 34.05078125 Z M-149.6328125 31.05078125 C-152.94295357 63.85664364 -148.08979078 97.26127831 -131.6328125 126.05078125 C-128.14401377 124.41488519 -124.99572781 122.38402851 -121.7578125 120.30078125 C-115.02754708 116.05234384 -108.02629857 112.97713855 -100.6328125 110.05078125 C-100.79507324 109.04321777 -100.95733398 108.0356543 -101.12451172 106.99755859 C-101.60774083 103.245454 -101.76208626 99.68222582 -101.765625 95.90234375 C-101.76658173 95.24551605 -101.76753845 94.58868835 -101.76852417 93.91195679 C-101.76919989 92.53212385 -101.76738841 91.15228763 -101.76318359 89.77246094 C-101.757844 87.68807642 -101.76314047 85.60390904 -101.76953125 83.51953125 C-101.77261829 76.62493093 -101.58750512 69.8851681 -100.6328125 63.05078125 C-84.75393857 61.05478363 -69.58049031 60.90434998 -53.6328125 62.05078125 C-52.3128125 58.75078125 -50.9928125 55.45078125 -49.6328125 52.05078125 C-73.43386667 34.10844811 -101.39878812 29.83625227 -130.5703125 29.92578125 C-131.85744141 29.92191406 -133.14457031 29.91804688 -134.47070312 29.9140625 C-135.70884766 29.91535156 -136.94699219 29.91664062 -138.22265625 29.91796875 C-139.33503662 29.91909668 -140.44741699 29.92022461 -141.59350586 29.92138672 C-144.38910426 30.04040569 -146.91371791 30.41393319 -149.6328125 31.05078125 Z M48.3671875 51.05078125 C48.842081 55.16652496 49.3882119 58.41461469 51.3671875 62.05078125 C52.37136719 61.97859375 53.37554687 61.90640625 54.41015625 61.83203125 C69.3290871 60.79839132 83.53058761 61.185799 98.3671875 63.05078125 C99.41706231 70.56655173 99.52078826 78.01339819 99.49755859 85.58984375 C99.49218061 87.67845863 99.49754153 89.76686023 99.50390625 91.85546875 C99.50324565 93.20442755 99.50196487 94.55338622 99.5 95.90234375 C99.49887207 97.10713379 99.49774414 98.31192383 99.49658203 99.55322266 C99.36482734 103.1145767 98.93345631 106.53451623 98.3671875 110.05078125 C99.38296875 110.46328125 100.39875 110.87578125 101.4453125 111.30078125 C109.61647851 114.70169922 116.8266092 118.32404364 124.01171875 123.546875 C126.32284291 125.3198518 126.32284291 125.3198518 129.3671875 125.05078125 C143.19385962 107.37406726 147.61257193 80.91350369 147.46484375 59.078125 C147.4634288 58.26960587 147.46201385 57.46108673 147.46055603 56.62806702 C147.45502164 54.08143183 147.4424821 51.53488922 147.4296875 48.98828125 C147.424664 47.24674607 147.42010259 45.5052095 147.41601562 43.76367188 C147.40507384 39.52600677 147.38785576 35.28840962 147.3671875 31.05078125 C117.76435224 21.1831695 73.16935287 33.76283124 48.3671875 51.05078125 Z M-82.6328125 82.05078125 C-83.26152611 90.53110436 -82.13734704 98.72210791 -80.6328125 107.05078125 C-80.07408447 107.15100586 -79.51535645 107.25123047 -78.93969727 107.35449219 C-76.35595249 107.82489427 -73.77577976 108.3127324 -71.1953125 108.80078125 C-69.87756836 109.03667969 -69.87756836 109.03667969 -68.53320312 109.27734375 C-63.10665853 110.31859954 -58.39314995 111.82272349 -53.42553711 114.25488281 C-51.65506352 115.18603754 -51.65506352 115.18603754 -49.6328125 115.05078125 C-51.04988343 110.23676015 -52.47721486 105.45428396 -54.1953125 100.73828125 C-56.15494329 95.00378272 -56.84617836 89.03845524 -57.6328125 83.05078125 C-70.71575292 79.68824349 -70.71575292 79.68824349 -82.6328125 82.05078125 Z M54.3671875 83.05078125 C54.28082031 84.04335937 54.19445312 85.0359375 54.10546875 86.05859375 C53.24619038 94.71351974 51.58134969 102.25877429 48.390625 110.35546875 C47.24886051 112.8818929 47.24886051 112.8818929 47.3671875 115.05078125 C48.23085938 114.76203125 49.09453125 114.47328125 49.984375 114.17578125 C59.39959682 111.04462203 68.51375573 108.40008001 78.3671875 107.05078125 C79.87172204 98.72210791 80.99590111 90.53110436 80.3671875 82.05078125 C78.50355858 80.18715233 75.48334849 80.8767908 72.9921875 80.86328125 C66.5828426 80.89611601 60.60630758 81.62469666 54.3671875 83.05078125 Z M-35.6328125 92.05078125 C-33.83154832 100.76546891 -30.35435058 107.56070493 -25.6328125 115.05078125 C-25.106875 115.99179688 -24.5809375 116.9328125 -24.0390625 117.90234375 C-23.575 118.61132812 -23.1109375 119.3203125 -22.6328125 120.05078125 C-21.9728125 120.05078125 -21.3128125 120.05078125 -20.6328125 120.05078125 C-20.3028125 120.71078125 -19.9728125 121.37078125 -19.6328125 122.05078125 C-20.90385032 110.10302577 -25.54584808 100.09923545 -34.6328125 92.05078125 C-34.9628125 92.05078125 -35.2928125 92.05078125 -35.6328125 92.05078125 Z M32.3671875 92.05078125 C23.52189372 100.39062967 18.27727907 109.76454503 17.3671875 122.05078125 C23.7738073 116.03076782 27.68252031 107.94901522 31.3671875 100.05078125 C32.016875 98.65859375 32.016875 98.65859375 32.6796875 97.23828125 C33.64606128 94.91053629 33.64606128 94.91053629 32.3671875 92.05078125 Z M-105.1953125 133.92578125 C-105.86755859 134.29058594 -106.53980469 134.65539062 -107.23242188 135.03125 C-110.11499169 136.60564265 -112.89868379 138.22802878 -115.6328125 140.05078125 C-114.25704837 144.17807363 -111.46411918 145.33006014 -107.8828125 147.42578125 C-107.20468506 147.82498779 -106.52655762 148.22419434 -105.82788086 148.63549805 C-90.69289767 157.3302886 -73.98672621 161.50847145 -56.6328125 162.05078125 C-59.06049179 160.43232839 -61.04198632 159.39870932 -63.6953125 158.30078125 C-75.98284941 152.86399425 -86.42740807 145.29537393 -92.6328125 133.05078125 C-92.9628125 132.06078125 -93.2928125 131.07078125 -93.6328125 130.05078125 C-98.36387824 130.05078125 -101.18864583 131.6925572 -105.1953125 133.92578125 Z M-69.6328125 130.05078125 C-66.6513709 134.34168976 -63.45846474 136.58835783 -58.8203125 138.80078125 C-58.22927734 139.10371094 -57.63824219 139.40664062 -57.02929688 139.71875 C-52.82995478 141.77949585 -49.22182083 142.60421962 -44.6328125 143.05078125 C-51.12024889 137.42833638 -60.87470698 130.05078125 -69.6328125 130.05078125 Z M55.9296875 133.73828125 C55.27419922 134.07794922 54.61871094 134.41761719 53.94335938 134.76757812 C49.70460407 137.04213589 46.60371002 139.48998287 43.3671875 143.05078125 C51.99179542 141.6369111 59.97623106 138.67831605 66.0546875 132.17578125 C66.4878125 131.47453125 66.9209375 130.77328125 67.3671875 130.05078125 C62.70745603 130.05078125 59.90051143 131.57625884 55.9296875 133.73828125 Z M91.3671875 130.05078125 C90.98240234 130.85128906 90.98240234 130.85128906 90.58984375 131.66796875 C82.63344675 147.15213531 70.26653367 155.02956289 54.3671875 161.05078125 C54.3671875 161.38078125 54.3671875 161.71078125 54.3671875 162.05078125 C60.80939106 162.29884743 66.53453234 161.43706501 72.8046875 159.98828125 C73.76608643 159.76640137 74.72748535 159.54452148 75.71801758 159.31591797 C88.50161244 156.21615841 102.09038619 151.55862496 112.3671875 143.05078125 C112.6971875 142.06078125 113.0271875 141.07078125 113.3671875 140.05078125 C111.11795046 138.75777065 108.86783565 137.46633148 106.6171875 136.17578125 C105.98296875 135.81097656 105.34875 135.44617188 104.6953125 135.0703125 C102.92400194 134.05549916 101.14579228 133.05275543 99.3671875 132.05078125 C98.64015625 131.63570312 97.913125 131.220625 97.1640625 130.79296875 C95.07503319 129.79627448 95.07503319 129.79627448 91.3671875 130.05078125 Z M-133.6328125 156.05078125 C-135.3205206 157.81479527 -135.3205206 157.81479527 -136.8203125 160.05078125 C-137.35011719 160.79328125 -137.87992188 161.53578125 -138.42578125 162.30078125 C-138.82410156 162.87828125 -139.22242188 163.45578125 -139.6328125 164.05078125 C-138.51481264 165.38998963 -137.38819353 166.72200681 -136.2578125 168.05078125 C-135.63132812 168.79328125 -135.00484375 169.53578125 -134.359375 170.30078125 C-133.78960937 170.87828125 -133.21984375 171.45578125 -132.6328125 172.05078125 C-131.9728125 172.05078125 -131.3128125 172.05078125 -130.6328125 172.05078125 C-130.43429688 172.59476563 -130.23578125 173.13875 -130.03125 173.69921875 C-128.04659947 177.03653613 -125.217327 179.2377671 -122.2578125 181.67578125 C-121.6803125 182.165625 -121.1028125 182.65546875 -120.5078125 183.16015625 C-115.72486618 187.54753256 -115.72486618 187.54753256 -109.71875 188.88671875 C-106.98803332 187.7923866 -104.70813989 186.30246918 -102.2578125 184.67578125 C-98.46014053 182.19992282 -94.74930196 179.94214127 -90.6328125 178.05078125 C-93.16348433 176.3636667 -95.11225342 175.39503831 -97.9140625 174.3515625 C-109.03543032 170.11816407 -119.01415416 165.95444639 -128.1328125 158.11328125 C-130.47833697 155.73258977 -130.47833697 155.73258977 -133.6328125 156.05078125 Z M124.4296875 159.11328125 C113.37579155 167.90333931 101.58521827 172.50189827 88.3671875 177.05078125 C91.28683751 180.13998057 94.62796077 182.10406526 98.3046875 184.17578125 C98.92537109 184.53542969 99.54605469 184.89507812 100.18554688 185.265625 C104.53173234 187.96099549 104.53173234 187.96099549 109.3671875 189.05078125 C112.06950158 187.58613221 112.06950158 187.58613221 114.7421875 185.42578125 C115.71414063 184.68070313 116.68609375 183.935625 117.6875 183.16796875 C118.57179688 182.46929687 119.45609375 181.770625 120.3671875 181.05078125 C120.96273437 180.59960938 121.55828125 180.1484375 122.171875 179.68359375 C128.08401745 175.04975237 132.76754159 168.93832801 137.3671875 163.05078125 C136.44066049 161.87538129 135.50055363 160.71067548 134.5546875 159.55078125 C133.77158203 158.57625 133.77158203 158.57625 132.97265625 157.58203125 C129.61873224 154.38315482 127.36112648 156.62947354 124.4296875 159.11328125 Z M-56.6328125 162.05078125 C-52.6328125 163.05078125 -52.6328125 163.05078125 -52.6328125 163.05078125 Z M-58.6328125 188.23828125 C-59.24898437 188.53025391 -59.86515625 188.82222656 -60.5 189.12304688 C-64.57022874 191.15379404 -67.05431977 193.31841302 -69.6328125 197.05078125 C-61.3525002 195.77220362 -52.98467089 191.54946643 -47.6328125 185.05078125 C-52.06245024 185.05078125 -54.79248918 186.29803422 -58.6328125 188.23828125 Z M45.3671875 185.05078125 C49.04668171 189.09402774 52.5899911 191.55208615 57.4921875 193.92578125 C58.11222656 194.24546875 58.73226562 194.56515625 59.37109375 194.89453125 C63.21405549 196.87993147 63.21405549 196.87993147 67.3671875 196.05078125 C61.21335581 190.38277838 53.89283967 185.72385905 45.3671875 185.05078125 Z M-20.6328125 205.05078125 C-23.10080138 208.28835807 -25.34611753 211.6837198 -27.6328125 215.05078125 C-28.35984375 216.06978516 -28.35984375 216.06978516 -29.1015625 217.109375 C-32.7031325 222.39094563 -34.2308186 227.8500928 -35.6328125 234.05078125 C-28.56150522 230.80665085 -25.69701522 224.8164771 -22.703125 217.953125 C-21.14696598 213.73332154 -20.27841405 209.49290531 -19.6328125 205.05078125 C-19.9628125 205.05078125 -20.2928125 205.05078125 -20.6328125 205.05078125 Z M17.3671875 205.05078125 C18.82295529 216.47964476 22.6379729 226.17909655 31.3671875 234.05078125 C32.0271875 234.05078125 32.6871875 234.05078125 33.3671875 234.05078125 C30.22697996 223.58342277 25.77082995 213.25025497 18.3671875 205.05078125 C18.0371875 205.05078125 17.7071875 205.05078125 17.3671875 205.05078125 Z M47.3671875 212.05078125 C47.56675049 212.72544434 47.76631348 213.40010742 47.97192383 214.09521484 C48.4827879 215.82253104 48.99341987 217.54991589 49.50390625 219.27734375 C50.25253609 221.68244415 51.10353418 224.00813106 51.9921875 226.36328125 C53.96052147 232.09309112 54.0978362 238.04146083 54.3671875 244.05078125 C59.84987819 245.20742862 65.17058024 245.1649438 70.7421875 245.11328125 C72.13244141 245.10651367 72.13244141 245.10651367 73.55078125 245.09960938 C75.82298459 245.08789699 78.09505138 245.07149497 80.3671875 245.05078125 C80.64452136 236.49965405 79.88734913 228.46596172 78.3671875 220.05078125 C77.74787354 219.91502686 77.12855957 219.77927246 76.49047852 219.6394043 C73.63576063 219.01066925 70.78274167 218.37452145 67.9296875 217.73828125 C66.95580078 217.52494141 65.98191406 217.31160156 64.97851562 217.09179688 C58.96937361 215.74526672 53.16306822 214.13490713 47.3671875 212.05078125 Z M-57.8203125 214.36328125 C-65.2901852 217.14499474 -72.78537396 218.69891159 -80.6328125 220.05078125 C-82.15297413 228.46596172 -82.91014636 236.49965405 -82.6328125 245.05078125 C-79.40366498 245.07995353 -76.17455167 245.09763788 -72.9453125 245.11328125 C-71.57729492 245.12584961 -71.57729492 245.12584961 -70.18164062 245.13867188 C-68.85229492 245.14350586 -68.85229492 245.14350586 -67.49609375 245.1484375 C-66.68438721 245.15367432 -65.87268066 245.15891113 -65.03637695 245.16430664 C-62.48416577 245.04376035 -60.12255113 244.61073025 -57.6328125 244.05078125 C-57.47425781 242.97441406 -57.31570312 241.89804687 -57.15234375 240.7890625 C-55.80720333 232.20009916 -54.02943244 224.52541054 -50.62109375 216.4921875 C-49.50773813 214.18077802 -49.50773813 214.18077802 -49.6328125 212.05078125 C-52.63198956 212.05078125 -55.0253297 213.29266072 -57.8203125 214.36328125 Z M-106.6328125 215.05078125 C-124.93432026 236.29360276 -127.51262428 268.32897192 -125.6328125 295.05078125 C-122.62092559 298.06266816 -115.10927921 297.14450526 -111.1953125 297.17578125 C-108.67430383 297.14659062 -106.15341854 297.10446556 -103.6328125 297.05078125 C-102.40304688 297.03402344 -101.17328125 297.01726562 -99.90625 297 C-81.13323889 296.33090083 -63.3435878 291.52463145 -47.6328125 281.05078125 C-48.28784532 276.99258942 -49.57840371 273.51106843 -51.1953125 269.73828125 C-51.65035156 268.66964844 -52.10539062 267.60101563 -52.57421875 266.5 C-52.92355469 265.69175781 -53.27289063 264.88351562 -53.6328125 264.05078125 C-55.44652344 264.29441406 -55.44652344 264.29441406 -57.296875 264.54296875 C-63.53050838 265.23288594 -69.74279616 265.19661833 -76.0078125 265.17578125 C-77.1628125 265.17964844 -78.3178125 265.18351562 -79.5078125 265.1875 C-86.60464985 265.17949003 -93.57904851 264.83532708 -100.6328125 264.05078125 C-101.71598682 256.37399814 -101.78603989 248.76463765 -101.76318359 241.02954102 C-101.7577982 238.85751449 -101.76316958 236.68569234 -101.76953125 234.51367188 C-101.76887081 233.11588497 -101.76759035 231.71809818 -101.765625 230.3203125 C-101.76449707 229.06839111 -101.76336914 227.81646973 -101.76220703 226.52661133 C-101.64122289 223.2767033 -101.24882765 220.24005133 -100.6328125 217.05078125 C-102.6128125 216.39078125 -104.5928125 215.73078125 -106.6328125 215.05078125 Z M99.3671875 216.05078125 C99.37242432 217.18507568 99.37766113 218.31937012 99.38305664 219.48803711 C99.40127678 223.7316813 99.41268121 227.97532209 99.42211914 232.21899414 C99.42712069 234.0490782 99.43392406 235.87915832 99.44262695 237.70922852 C99.45487682 240.35303729 99.46045773 242.99679283 99.46484375 245.640625 C99.47000504 246.44725082 99.47516632 247.25387665 99.48048401 248.08494568 C99.48100637 253.48021534 99.04313234 258.69701745 98.3671875 264.05078125 C90.14192456 264.96562554 82.01405305 265.20347723 73.7421875 265.17578125 C71.99808594 265.18158203 71.99808594 265.18158203 70.21875 265.1875 C63.84961484 265.1802951 57.680494 264.89883735 51.3671875 264.05078125 C50.3604871 266.31885329 49.36166984 268.58985879 48.3671875 270.86328125 C48.08101562 271.50587891 47.79484375 272.14847656 47.5 272.81054688 C46.23007709 275.72834594 45.3671875 277.83343839 45.3671875 281.05078125 C47.28307762 282.62251003 47.28307762 282.62251003 49.8046875 283.98828125 C50.62839844 284.47167969 51.45210937 284.95507812 52.30078125 285.453125 C59.72550063 289.32154567 66.86674809 291.95071271 75.0546875 293.73828125 C76.02293457 293.95250732 76.99118164 294.1667334 77.98876953 294.38745117 C85.48773629 295.98562237 92.68588611 296.93547303 100.3671875 297.05078125 C101.04040039 297.06447754 101.71361328 297.07817383 102.40722656 297.09228516 C112.4326565 297.28093268 112.4326565 297.28093268 122.3671875 296.05078125 C128.64772476 274.89793177 121.67169011 244.68219701 111.7421875 225.61328125 C109.58406017 221.80869528 107.27880545 218.32486593 104.3671875 215.05078125 C102.15636899 214.94537199 102.15636899 214.94537199 99.3671875 216.05078125 Z M-1.6328125 247.05078125 C-1.83849854 247.59379883 -2.04418457 248.13681641 -2.25610352 248.69628906 C-6.32496558 259.35858022 -10.46279167 269.4130525 -16.6328125 279.05078125 C-17.63688282 280.71499895 -18.63808896 282.38096005 -19.6328125 284.05078125 C-18.01686418 286.09197913 -16.3471743 288.09151062 -14.6328125 290.05078125 C-13.9728125 290.05078125 -13.3128125 290.05078125 -12.6328125 290.05078125 C-12.28089844 290.90929687 -12.28089844 290.90929687 -11.921875 291.78515625 C-10.33874665 294.56762426 -8.43366 296.22148339 -6.0078125 298.30078125 C-5.19054687 299.0071875 -4.37328125 299.71359375 -3.53125 300.44140625 C-2.90476563 300.9725 -2.27828125 301.50359375 -1.6328125 302.05078125 C0.01162236 300.64615981 1.65494342 299.2402158 3.29296875 297.828125 C4.67668589 296.64245401 6.07001843 295.46791404 7.47265625 294.3046875 C11.56804259 290.8547279 14.65761277 287.67963807 17.3671875 283.05078125 C16.9546875 282.52613281 16.5421875 282.00148438 16.1171875 281.4609375 C8.49730557 271.23872982 2.92630626 259.28525199 -0.6328125 247.05078125 C-0.9628125 247.05078125 -1.2928125 247.05078125 -1.6328125 247.05078125 Z M-33.6328125 258.05078125 C-33.3028125 260.03078125 -32.9728125 262.01078125 -32.6328125 264.05078125 C-29.14949815 261.03190881 -27.84124106 258.48168596 -26.6328125 254.05078125 C-29.02456849 254.05078125 -31.71779734 256.74694114 -33.6328125 258.05078125 Z M24.3671875 254.05078125 C25.67943298 257.98751769 27.28629077 260.27797419 30.3671875 263.05078125 C31.0271875 261.40078125 31.6871875 259.75078125 32.3671875 258.05078125 C29.7271875 256.73078125 27.0871875 255.41078125 24.3671875 254.05078125 Z " fill="#E36C89" transform="translate(257.6328125,79.94921875)"/>
<path d="M0 0 C2.9145311 11.6581244 3.1659435 23.2775513 3.13037109 35.23535156 C3.12502433 37.36530733 3.13034459 39.49505068 3.13671875 41.625 C3.14423252 53.57932573 2.9116171 65.53428276 0.3125 77.25 C0.13879883 78.04446533 -0.03490234 78.83893066 -0.21386719 79.6574707 C-4.24984156 97.35945017 -10.9027388 113.85410819 -21 129 C-27.00073223 124.68339698 -32.54006063 119.97966692 -38 115 C-37.23816406 113.7625 -37.23816406 113.7625 -36.4609375 112.5 C-24.37579344 92.42687048 -19.19525387 70.38318681 -18.68359375 47.02734375 C-18.6524221 45.81456505 -18.6524221 45.81456505 -18.62062073 44.57728577 C-18.55598384 42.03076486 -18.49664591 39.48415373 -18.4375 36.9375 C-18.3942328 35.19595475 -18.35061612 33.45441814 -18.30664062 31.71289062 C-18.20039252 27.47534948 -18.09889177 23.23771894 -18 19 C-69.74268847 17.95657394 -69.74268847 17.95657394 -116 39 C-117.26423835 41.071968 -117.26423835 41.071968 -118 43 C-118.35191406 42.23816406 -118.70382812 41.47632813 -119.06640625 40.69140625 C-122.37344332 33.77512245 -126.02246332 27.83167019 -131 22 C-130.47277344 21.74734375 -129.94554687 21.4946875 -129.40234375 21.234375 C-126.38657509 19.68480931 -123.48820913 17.96358219 -120.5625 16.25 C-85.45299956 -3.82426618 -39.45521579 -9.18071503 0 0 Z " fill="#F3C9C5" transform="translate(423,92)"/>
<path d="M0 0 C0.82111267 0.00304138 1.64222534 0.00608276 2.48822021 0.00921631 C34.25141052 0.18210544 64.56064031 7.00386128 91.4375 24.4375 C93.4175 22.9525 93.4175 22.9525 95.4375 21.4375 C94.03946653 24.50769114 92.35390298 26.86123699 90.1875 29.4375 C86.02337708 34.66666065 83.2301027 40.39197547 80.4375 46.4375 C80.1075 45.4475 79.7775 44.4575 79.4375 43.4375 C51.79660874 20.96884795 13.88930773 22.06095355 -19.5625 22.4375 C-20.05820409 53.3236778 -18.72892142 85.51788249 -2.91796875 112.92578125 C-1.5625 115.4375 -1.5625 115.4375 -1.5625 117.4375 C-0.5725 117.9325 -0.5725 117.9325 0.4375 118.4375 C-0.28695312 119.02917969 -1.01140625 119.62085938 -1.7578125 120.23046875 C-6.71054091 124.27849877 -11.65937934 128.32947999 -16.5625 132.4375 C-34.09181609 105.84757637 -40.75081446 76.44176153 -40.74780273 44.87890625 C-40.74997785 42.33836814 -40.76816173 39.7982736 -40.78710938 37.2578125 C-40.81584638 29.06130326 -40.58933913 20.97101031 -39.67578125 12.8203125 C-39.59804977 12.10293915 -39.5203183 11.3855658 -39.44023132 10.64645386 C-38.81492769 5.68992769 -38.81492769 5.68992769 -36.5625 3.4375 C-33.89348442 2.79622477 -31.30148528 2.27647674 -28.59765625 1.83984375 C-27.79497818 1.7094017 -26.99230011 1.57895966 -26.16529846 1.44456482 C-17.44142901 0.12776735 -8.80771186 -0.06987929 0 0 Z " fill="#F3C9C5" transform="translate(127.5625,88.5625)"/>
<path d="M0 0 C2.82703648 1.41351824 2.84749682 3.05777345 4 6 C4.64559721 7.21242129 5.31009641 8.41487659 5.98828125 9.609375 C21.02321622 36.25221177 24.17586245 67.04965015 21.125 97.1875 C21.04660889 97.97729248 20.96821777 98.76708496 20.88745117 99.58081055 C20.39758775 103.95670461 19.57374237 107.85404845 18 112 C16.56432267 112.32076956 15.12628018 112.63094808 13.6875 112.9375 C12.48673828 113.19853516 12.48673828 113.19853516 11.26171875 113.46484375 C-6.20368478 116.33042493 -24.58115904 115.94922175 -42 113 C-43.24910156 112.79375 -44.49820313 112.5875 -45.78515625 112.375 C-58.80832361 110.00470273 -70.64551247 106.22121203 -82.078125 99.59106445 C-85.44342845 97.66572257 -87.00556452 97 -91 97 C-91.66 96.67 -92.32 96.34 -93 96 C-92.40832031 95.29875 -91.81664062 94.5975 -91.20703125 93.875 C-86.68581483 88.44659007 -82.56745334 83.09919441 -79 77 C-75.47131239 78.30074496 -72.27306432 79.94262341 -68.98974609 81.76733398 C-47.58166 93.37716633 -23.71724614 93.20940247 0 93 C0.66133085 64.23210817 -0.29534651 33.83718815 -20 11 C-19.14450562 10.55346069 -19.14450562 10.55346069 -18.27172852 10.09790039 C-15.70097638 8.7546883 -13.13172348 7.40863353 -10.5625 6.0625 C-9.66466797 5.59392578 -8.76683594 5.12535156 -7.84179688 4.64257812 C-6.98779297 4.19462891 -6.13378906 3.74667969 -5.25390625 3.28515625 C-4.46314697 2.87144775 -3.6723877 2.45773926 -2.85766602 2.03149414 C-1.04434725 1.13599249 -1.04434725 1.13599249 0 0 Z " fill="#F3C7C4" transform="translate(380,283)"/>
<path d="M0 0 C2.9593064 1.41590397 5.67502996 3.04694158 8.4375 4.8125 C13.52975742 7.92105714 18.7914738 9.95500833 24.41015625 11.921875 C27 13 27 13 28 15 C25.69 14.67 23.38 14.34 21 14 C11.02620722 27.15225422 6.59915402 41.9371913 4 58 C3.80277344 59.216875 3.60554688 60.43375 3.40234375 61.6875 C2.68537427 67.76065322 2.89560084 73.89561429 2.9375 80 C2.94201172 81.25167969 2.94652344 82.50335938 2.95117188 83.79296875 C2.96288585 86.86202941 2.97928927 89.93098907 3 93 C10.06671695 94.12283271 16.86112456 94.15204501 24 94 C25.22976562 93.98324219 26.45953125 93.96648437 27.7265625 93.94921875 C45.5265323 93.31480027 61.52780888 88.74781744 77 80 C77.66 79.67 78.32 79.34 79 79 C79 77.35 79 75.7 79 74 C81.89202126 76.55023693 83.51112503 79.4600552 85.375 82.8125 C87.93494577 87.29648144 90.51666336 91.19999639 94 95 C68.19308449 115.68493228 29.44616808 118.7499962 -2.18798828 115.37573242 C-12.38314341 114.13604212 -12.38314341 114.13604212 -16 112 C-16.890625 109.53125 -16.890625 109.53125 -17.25 106.5 C-17.38664062 105.406875 -17.52328125 104.31375 -17.6640625 103.1875 C-17.77492188 102.135625 -17.88578125 101.08375 -18 100 C-18.16628906 98.8553125 -18.16628906 98.8553125 -18.3359375 97.6875 C-22.16207285 68.73296218 -17.80092694 36.46316432 -3.25170898 11.03759766 C-2.83091064 10.30202637 -2.4101123 9.56645508 -1.9765625 8.80859375 C-1.59580566 8.16720459 -1.21504883 7.52581543 -0.82275391 6.86499023 C0.26908364 4.72978535 0.26908364 4.72978535 0 1 C0 0.67 0 0.34 0 0 Z " fill="#F3C8C4" transform="translate(130,282)"/>
<path d="M0 0 C1.83880424 2.75820637 3.08646725 5.4492413 4.359375 8.49633789 C8.89495713 19.33672732 14.21435008 30.59941526 24.875 36.625 C27 38 27 38 27.625 40.4375 C27.74875 41.283125 27.8725 42.12875 28 43 C29.46771271 45.26454073 29.46771271 45.26454073 31 47 C31.66 46.67 32.32 46.34 33 46 C31.66951687 54.81249413 25.39115988 62.15590341 20 69 C9.8262153 60.02313115 5.19920175 46.19281827 0 34 C-0.3403125 34.99257813 -0.680625 35.98515625 -1.03125 37.0078125 C-5.16017234 48.71053202 -9.75757377 60.36626042 -19 69 C-28.96537823 55.62414038 -28.96537823 55.62414038 -31 51 C-30.35117127 47.97213258 -29.04385547 46.07192297 -27.4375 43.4375 C-25.91446851 41.17352581 -25.91446851 41.17352581 -25.6328125 39.01171875 C-24.80598179 36.38321372 -23.73652366 35.84169611 -21.4375 34.375 C-9.79447143 26.02284533 -4.62500912 13.10419249 0 0 Z " fill="#F3C5C2" transform="translate(256,295)"/>
<path d="M0 0 C0.99 0.825 1.98 1.65 3 2.5 C12.83448316 9.76449627 23.59243384 14.21124559 35.3125 17.4375 C36.20662598 17.68435547 37.10075195 17.93121094 38.02197266 18.18554688 C45.49604193 20.1162908 53.41198215 22.00052345 61 20 C63.359375 20.55859375 63.359375 20.55859375 65.75 21.4375 C66.54921875 21.72496094 67.3484375 22.01242188 68.171875 22.30859375 C68.77515625 22.53675781 69.3784375 22.76492187 70 23 C70 23.33 70 23.66 70 24 C69.03320312 24.23074219 68.06640625 24.46148437 67.0703125 24.69921875 C50.26965663 28.84638039 35.86291358 36.42315522 26.390625 51.57421875 C25.20595921 53.69397185 24.07138869 55.82116627 23 58 C15.4837069 56.17689912 9.45203129 53.24186738 3 49 C5 48 5 48 6.78515625 47.65234375 C9.72525373 46.78638911 11.89169755 45.26087861 14.4375 43.5625 C17.89778983 41.25724433 21.12467021 39.48876067 25 38 C24.0867395 37.64603149 24.0867395 37.64603149 23.1550293 37.28491211 C9.44208963 31.93127461 -2.82718702 26.77621136 -14 17 C-14.99 16.34 -15.98 15.68 -17 15 C-15.29798107 13.243468 -13.58884897 11.49492913 -11.875 9.75 C-11.400625 9.25886719 -10.92625 8.76773438 -10.4375 8.26171875 C-7.1995368 4.97999929 -3.91434179 2.43920408 0 0 Z M60 22 C64 23 64 23 64 23 Z " fill="#F3C7C3" transform="translate(141,220)"/>
<path d="M0 0 C4.30689775 2.35284229 7.68862426 5.24116797 11.25 8.5625 C11.79140625 9.05685547 12.3328125 9.55121094 12.890625 10.06054688 C16.86674289 13.73348577 16.86674289 13.73348577 18 16 C17.31292969 16.40476563 16.62585938 16.80953125 15.91796875 17.2265625 C13.2715875 18.83493879 10.67875089 20.50856681 8.09155273 22.20996094 C-2.15603857 28.92074805 -12.48622374 33.75903226 -24 38 C-22.94039063 38.55429687 -21.88078125 39.10859375 -20.7890625 39.6796875 C-19.40094005 40.41126555 -18.01292477 41.14304698 -16.625 41.875 C-15.92632812 42.23980469 -15.22765625 42.60460937 -14.5078125 42.98046875 C-9.2265625 45.7734375 -9.2265625 45.7734375 -7 48 C-4.41645782 48.16687448 -4.41645782 48.16687448 -2 48 C-4.77729863 51.43202302 -8.64061811 52.91022334 -12.5625 54.6875 C-13.24763672 55.00783203 -13.93277344 55.32816406 -14.63867188 55.65820312 C-19.72671242 58 -19.72671242 58 -22 58 C-23.19140625 56.1640625 -23.19140625 56.1640625 -24.5625 53.625 C-33.60274944 38.18669962 -46.65076345 30.13671684 -63.6015625 25.25 C-65.39162584 24.79457753 -67.194432 24.38943624 -69 24 C-68.67 23.34 -68.34 22.68 -68 22 C-66.88625 22.020625 -65.7725 22.04125 -64.625 22.0625 C-61.16784079 22.26380718 -61.16784079 22.26380718 -59 21 C-57.28103516 21.03287109 -57.28103516 21.03287109 -55.52734375 21.06640625 C-50.36396988 21.1233766 -45.57565467 20.09584089 -40.5625 18.9375 C-39.60110107 18.71562012 -38.63970215 18.49374023 -37.64916992 18.26513672 C-24.60271626 15.1016393 -11.70716634 10.31560664 -1 2 C-0.67 1.34 -0.34 0.68 0 0 Z " fill="#F3C8C5" transform="translate(371,220)"/>
<path d="M0 0 C0.66 0 1.32 0 2 0 C3.39121521 1.97540514 4.64626924 3.92637488 5.875 6 C6.23142578 6.59361328 6.58785156 7.18722656 6.95507812 7.79882812 C14.24468875 20.04590704 14.24468875 20.04590704 14 26 C13.46632813 26.25652344 12.93265625 26.51304687 12.3828125 26.77734375 C-2.68807516 34.52138118 -12.47808034 47.24637698 -17.8125 63.125 C-18.21621886 64.41422375 -18.61525025 65.70498864 -19 67 C-21.32036374 64.67963626 -21.78904926 63.03398287 -22.8125 59.9375 C-27.55042048 46.6574893 -36.12917502 34.43541249 -49.0546875 27.97265625 C-50.68168141 27.26370509 -52.33825418 26.62315468 -54 26 C-53.38692229 21.25093537 -51.43441219 17.58470454 -49.1875 13.4375 C-48.84396484 12.77814453 -48.50042969 12.11878906 -48.14648438 11.43945312 C-46.16086005 7.73270603 -44.19401246 4.82077954 -41 2 C-40.91878906 2.53238281 -40.83757812 3.06476563 -40.75390625 3.61328125 C-39.72801845 6.86104005 -37.84452935 9.40585665 -35.9375 12.1875 C-29.03350375 22.58801834 -23.49177888 33.9970101 -20 46 C-18.01392265 41.58094546 -16.05089103 37.15795762 -14.2109375 32.67578125 C-10.65580396 24.16176633 -6.90564797 16.63485803 -0.97412109 9.50317383 C0.46952303 7.76849129 0.46952303 7.76849129 2 5 C1.42913011 2.13943838 1.42913011 2.13943838 0 0 Z " fill="#F3C7C4" transform="translate(276,124)"/>
<path d="M0 0 C4.75618854 7.13428281 3.15475523 17.92651261 3.13037109 26.29589844 C3.12494431 28.52285356 3.13037833 30.74961298 3.13671875 32.9765625 C3.13605909 34.39062545 3.13478027 35.80468827 3.1328125 37.21875 C3.13168457 38.49685547 3.13055664 39.77496094 3.12939453 41.09179688 C3 44 3 44 2 45 C-2.82603345 45.28914144 -7.66610389 45.24408193 -12.5 45.25 C-13.55811386 45.25250763 -13.55811386 45.25250763 -14.63760376 45.25506592 C-39.93962346 45.2586791 -39.93962346 45.2586791 -50 40 C-45.50445462 40.49652292 -41.01041168 40.99814941 -36.51953125 41.53515625 C-23.98044305 42.97054489 -11.61294147 43.23518107 1 43 C1.16502485 28.64283833 0.65520257 14.34126909 0 0 Z " fill="#FAEBE8" transform="translate(379,333)"/>
<path d="M0 0 C0.33 0 0.66 0 1 0 C1 11.55 1 23.1 1 35 C14.93248863 36.99035552 28.99308035 35.75387944 43 35 C37.52694849 38.64870101 30.66665226 38.12721569 24.25390625 38.1328125 C23.20903297 38.13424759 23.20903297 38.13424759 22.14305115 38.13571167 C20.68854684 38.13638596 19.23403938 38.13458468 17.77954102 38.13037109 C15.54371543 38.12495449 13.30808554 38.13037046 11.07226562 38.13671875 C9.65364539 38.13605895 8.23502528 38.13477983 6.81640625 38.1328125 C5.53193604 38.13168457 4.24746582 38.13055664 2.92407227 38.12939453 C0 38 0 38 -1 37 C-1.10038875 34.69446821 -1.13081571 32.38584048 -1.1328125 30.078125 C-1.13376923 29.38112488 -1.13472595 28.68412476 -1.13571167 27.96600342 C-1.13639368 26.48644928 -1.13453793 25.00689218 -1.13037109 23.52734375 C-1.12505511 21.27336793 -1.13029859 19.01959432 -1.13671875 16.765625 C-1.13605734 15.32812456 -1.13477489 13.89062425 -1.1328125 12.453125 C-1.13168457 11.14504883 -1.13055664 9.83697266 -1.12939453 8.48925781 C-1.01908719 5.51470579 -0.69708015 2.88384896 0 0 Z " fill="#F9E9E6" transform="translate(132,340)"/>
<path d="M0 0 C1.50012334 0.27014933 3.00008578 0.54119199 4.5 0.8125 C5.49515625 0.99039063 6.4903125 1.16828125 7.515625 1.3515625 C10.03437438 1.82029837 12.53934443 2.31383128 15.046875 2.8359375 C15.74232422 2.97668701 16.43777344 3.11743652 17.15429688 3.26245117 C18.52208216 3.53986429 19.88811692 3.82609588 21.25195312 4.12231445 C25.80724338 5.03143457 29.44641649 4.6742086 34 4 C36.65234375 4.55859375 36.65234375 4.55859375 38.9375 5.4375 C39.70964844 5.72496094 40.48179687 6.01242188 41.27734375 6.30859375 C41.84582031 6.53675781 42.41429687 6.76492187 43 7 C43 7.33 43 7.66 43 8 C27.73771959 8.44962528 14.43709804 5.5299637 0 1 C0 0.67 0 0.34 0 0 Z M33 6 C37 7 37 7 37 7 Z " fill="#F8E1E1" transform="translate(168,236)"/>
<path d="M0 0 C9.00619402 1.56870183 16.54826773 3.5974941 24 9 C23.01 9.495 23.01 9.495 22 10 C19.72265625 9.00390625 19.72265625 9.00390625 17.0625 7.5625 C13.25571189 5.45669019 13.25571189 5.45669019 9 5 C9.99 6.485 9.99 6.485 11 8 C6.40378078 6.5129879 3.53027653 4.20187872 0 1 C0 0.67 0 0.34 0 0 Z " fill="#F7D9DB" transform="translate(297,262)"/>
<path d="M0 0 C-2.1875 2.0625 -2.1875 2.0625 -5 4 C-5.75539062 3.81308594 -6.51078125 3.62617188 -7.2890625 3.43359375 C-11.07102301 2.82869805 -12.88440833 4.16175768 -16.1875 6 C-18.09601238 7.05427071 -20.02876925 8.06825134 -22 9 C-22.66 8.67 -23.32 8.34 -24 8 C-17.68472518 3.54215895 -7.83166311 -2.61055437 0 0 Z " fill="#F6D1D5" transform="translate(216,263)"/>
<path d="M0 0 C0.66 0.33 1.32 0.66 2 1 C0.09042286 3.13176064 -1.82708763 5.2553245 -3.75 7.375 C-4.55824219 8.27992187 -4.55824219 8.27992187 -5.3828125 9.203125 C-5.91132813 9.78320312 -6.43984375 10.36328125 -6.984375 10.9609375 C-7.70705566 11.76217041 -7.70705566 11.76217041 -8.44433594 12.57958984 C-10.16979726 14.1550346 -11.87547258 15.04997548 -14 16 C-12.34136495 11.67495164 -9.128959 8.90581175 -5.875 5.75 C-5.31167969 5.19570312 -4.74835938 4.64140625 -4.16796875 4.0703125 C-2.78313972 2.70895515 -1.39216796 1.35385141 0 0 Z " fill="#EFADBB" transform="translate(239,92)"/>
<path d="M0 0 C2.4525805 2.4525805 2.98703035 4.46225248 4.0625 7.75 C4.40410156 8.77609375 4.74570312 9.8021875 5.09765625 10.859375 C5.97148515 13.90075349 6.5456569 16.87112175 7 20 C4.68012512 17.13661157 3.20390373 14.43212933 1.875 11 C1.54242188 10.154375 1.20984375 9.30875 0.8671875 8.4375 C0.10135024 6.28487634 -0.60242421 4.24969714 -1 2 C-0.67 1.34 -0.34 0.68 0 0 Z " fill="#FAF0ED" transform="translate(256,323)"/>
<path d="M0 0 C0.33 0 0.66 0 1 0 C0.88590407 1.45922693 0.75834456 2.91740598 0.625 4.375 C0.55539063 5.18710937 0.48578125 5.99921875 0.4140625 6.8359375 C0 9 0 9 -2 11 C-2 2 -2 2 0 0 Z " fill="#F1B9C5" transform="translate(239,281)"/>
<path d="M0 0 C0 4.38968456 -2.12805101 5.76905739 -5 9 C-5.66 8.67 -6.32 8.34 -7 8 C-5.68 6.68 -4.36 5.36 -3 4 C-3.66 3.34 -4.32 2.68 -5 2 C-3.35 1.34 -1.7 0.68 0 0 Z " fill="#F3C1CB" transform="translate(327,207)"/>
<path d="M0 0 C1.32 1.32 2.64 2.64 4 4 C4.66 3.67 5.32 3.34 6 3 C5.67 4.65 5.34 6.3 5 8 C4.34 8 3.68 8 3 8 C0 2.25 0 2.25 0 0 Z " fill="#F9E6E7" transform="translate(283,338)"/>
<path d="M0 0 C1 3 1 3 0.0625 5.1875 C-0.4634375 6.0846875 -0.4634375 6.0846875 -1 7 C-0.34 7.33 0.32 7.66 1 8 C-0.65 8.66 -2.3 9.32 -4 10 C-2.8905928 6.51329166 -1.73662334 3.22515763 0 0 Z " fill="#F6CFD7" transform="translate(306,188)"/>
<path d="M0 0 C-1.65 1.32 -3.3 2.64 -5 4 C-6.32 3.34 -7.64 2.68 -9 2 C-4 -1.33333333 -4 -1.33333333 0 0 Z " fill="#F8DDDD" transform="translate(216,263)"/>
<path d="M0 0 C2 1 2 1 3 2 C3.66 2.33 4.32 2.66 5 3 C2.09399739 4.25664978 0.20395416 5 -3 5 C-3 4.34 -3 3.68 -3 3 C-2.34 3 -1.68 3 -1 3 C-0.67 2.01 -0.34 1.02 0 0 Z " fill="#F5CAD3" transform="translate(188,274)"/>
<path d="M0 0 C0.66 0.33 1.32 0.66 2 1 C1.67 1.33 1.34 1.66 1 2 C1.66 2.66 2.32 3.32 3 4 C0.36 4.33 -2.28 4.66 -5 5 C-3.35 3.35 -1.7 1.7 0 0 Z " fill="#F6D5DB" transform="translate(301,220)"/>
</svg>
